<svg width="21" height="18" viewBox="0 0 21 18" fill="none" xmlns="http://www.w3.org/2000/svg">
<path d="M3.8804 17.8578L6.64932 16.4707L8.22769 15.6821L9.40696 15.0929L10.9853 14.3019L14.5412 12.5134L16.9764 12.5134C17.8256 12.5134 18.64 12.1623 19.2404 11.5372C19.8409 10.9122 20.1782 10.0645 20.1782 9.18051C20.1782 8.29656 19.8409 7.44882 19.2404 6.82378C18.64 6.19873 17.8256 5.84759 16.9764 5.84759L14.5705 5.84759L11.3574 4.2445L8.22769 2.66958L6.64932 1.87859L3.69776 0.399902L-0.000139332 4.05907L2.59065 6.62449L0.0066259 9.18286L2.59065 11.7459L0.0133892 14.3066L3.69776 17.9494L3.8804 17.8578ZM13.5987 7.1878L13.5987 7.3075L10.9876 6.86389L10.9876 5.88279L13.5987 7.1878ZM13.5987 9.37297L10.9876 9.78841L10.9876 8.52331L13.5896 8.90824L13.5896 9.37767L13.5987 9.37297ZM9.40921 5.09416L9.40921 13.2669L8.22769 13.856L8.22769 4.49329L9.40921 5.09416ZM10.9876 11.4502L13.5806 11.0465L13.5806 11.185L10.9876 12.4853L10.9876 11.4502ZM15.177 7.48119L16.9809 7.48119C17.4115 7.48119 17.8244 7.65923 18.1289 7.97616C18.4333 8.29308 18.6044 8.72292 18.6044 9.17112C18.6044 9.61932 18.4333 10.0492 18.1289 10.3661C17.8244 10.683 17.4115 10.8611 16.9809 10.8611L15.1658 10.8611L15.1658 9.16643L15.1658 9.13122L15.1658 8.82844L15.1658 7.49292L15.177 7.48119ZM3.9954 2.37149L6.64932 3.70231L6.64932 6.22547L4.09686 5.84759L2.29301 4.05907L3.9954 2.37149ZM2.29977 9.17816L4.00442 7.48823L6.64932 7.88489L6.64932 10.4667L4.00667 10.8798L2.29977 9.17816ZM2.29977 14.3019L4.10363 12.5158L6.64932 12.1215L6.64932 14.6493L3.99314 15.9778L2.29977 14.3019Z" fill="#5B5B5B"/>
<path d="M8.22991 13.8561L8.22991 4.49341L9.40918 5.08488L9.40918 13.267L8.22991 13.8561Z" fill="#ED696B"/>
<path d="M15.1704 9.14306L15.1704 9.12898L15.1231 9.12898L15.1704 9.14306Z" fill="#5B5B5B"/>
</svg>
