<?xml version="1.0" encoding="UTF-8"?>
<svg id="Layer_2" data-name="Layer 2" xmlns="http://www.w3.org/2000/svg" viewBox="0 0 365.35 365.47">
  <defs>
    <style>
      .cls-1 {
        fill: none;
        stroke: #000;
        stroke-miterlimit: 10;
        stroke-width: 17px;
      }
    </style>
  </defs>
  <g id="Layer_2-2" data-name="Layer 2">
    <g>
      <path class="cls-1" d="m251.55,130.03c0,19.32-4.51,37.59-12.54,53.81-11.84,23.97-31.36,43.46-55.34,55.26-16.17,7.98-34.39,12.45-53.64,12.45-67.12,0-121.53-54.41-121.53-121.53S62.91,8.5,130.03,8.5s121.53,54.41,121.53,121.53Z"/>
      <path class="cls-1" d="m345.39,345.52c-7.64,7.64-17.64,11.45-27.66,11.45s-20.01-3.81-27.65-11.45l-69.98-69.97,55.75-54.87,69.54,69.54c15.28,15.28,15.28,40.04,0,55.3Z"/>
      <path class="cls-1" d="m275.85,220.67l-55.75,54.87-36.44-36.44c23.99-11.81,43.51-31.3,55.34-55.26l36.84,36.83Z"/>
    </g>
  </g>
</svg>