<svg width="51" height="78" viewBox="0 0 51 78" fill="none" xmlns="http://www.w3.org/2000/svg">
<g filter="url(#filter0_d_296_19)">
<path d="M4.8811 29.4165L8.06882 36.1144L9.88097 39.9324L11.2347 42.785L13.0524 46.603L17.163 55.2043L17.064 61.0968C17.0294 63.1516 17.8317 65.1217 19.2944 66.5737C20.7572 68.0257 22.7604 68.8406 24.8636 68.8393C26.9667 68.8379 28.9974 68.0204 30.509 66.5665C32.0206 65.1126 32.8892 63.1414 32.9237 61.0866L33.0216 55.265L36.9665 47.4878L40.841 39.9124L42.7872 36.092L46.4255 28.9478L37.8698 20.0055L31.6606 26.2784L25.6787 20.0297L19.4754 26.2863L13.4877 20.054L4.67073 28.9747L4.8811 29.4165ZM29.8725 52.9156L29.5876 52.9157L30.7493 46.597L33.0836 46.5955L29.8725 52.9156ZM24.6734 52.9189L23.7912 46.6015L26.8012 46.5995L25.7794 52.8964L24.6626 52.8971L24.6734 52.9189ZM35.0242 42.7751L15.5793 42.7876L14.2256 39.9296L36.5019 39.9152L35.0242 42.7751ZM19.8374 46.604L20.6924 52.8778L20.3629 52.878L17.3747 46.6056L19.8374 46.604ZM29.1102 56.7352L29.0368 61.1C29.0193 62.1419 28.5788 63.1414 27.8124 63.8785C27.046 64.6157 26.0163 65.0303 24.9499 65.031C23.8836 65.0317 22.8678 64.6184 22.1262 63.8822C21.3845 63.146 20.9777 62.1471 20.9952 61.1052L21.0691 56.7131L25.101 56.7105L25.1848 56.7105L25.9052 56.71L29.0827 56.708L29.1102 56.7352ZM41.7224 29.671L38.4481 36.0948L32.4448 36.0986L33.4478 29.9218L37.7765 25.5543L41.7224 29.671ZM25.5966 25.5785L29.548 29.7007L28.4966 36.1012L22.3538 36.1051L21.4784 29.7113L25.5966 25.5785ZM13.4058 25.5864L17.5822 29.9484L18.4168 36.1077L12.4023 36.1116L9.34963 29.6864L13.4058 25.5864Z" fill="#5B5B5B"/>
<path d="M14.192 39.9356L36.5304 39.9294L35.0722 42.7923L15.5506 42.7977L14.192 39.9356Z" fill="#ED696B"/>
<path d="M25.1666 56.6856L25.2002 56.6856L25.202 56.5706L25.1666 56.6856Z" fill="#5B5B5B"/>
</g>
<g filter="url(#filter1_d_296_19)">
<line x1="25.5" y1="22" x2="25.5" stroke="#5B5B5B" stroke-width="3"/>
</g>
<defs>
<filter id="filter0_d_296_19" x="0.670898" y="20.0055" width="49.7549" height="57.8337" filterUnits="userSpaceOnUse" color-interpolation-filters="sRGB">
<feFlood flood-opacity="0" result="BackgroundImageFix"/>
<feColorMatrix in="SourceAlpha" type="matrix" values="0 0 0 0 0 0 0 0 0 0 0 0 0 0 0 0 0 0 127 0" result="hardAlpha"/>
<feOffset dy="5"/>
<feGaussianBlur stdDeviation="2"/>
<feComposite in2="hardAlpha" operator="out"/>
<feColorMatrix type="matrix" values="0 0 0 0 0 0 0 0 0 0 0 0 0 0 0 0 0 0 0.25 0"/>
<feBlend mode="normal" in2="BackgroundImageFix" result="effect1_dropShadow_296_19"/>
<feBlend mode="normal" in="SourceGraphic" in2="effect1_dropShadow_296_19" result="shape"/>
</filter>
<filter id="filter1_d_296_19" x="20" y="0" width="11" height="31" filterUnits="userSpaceOnUse" color-interpolation-filters="sRGB">
<feFlood flood-opacity="0" result="BackgroundImageFix"/>
<feColorMatrix in="SourceAlpha" type="matrix" values="0 0 0 0 0 0 0 0 0 0 0 0 0 0 0 0 0 0 127 0" result="hardAlpha"/>
<feOffset dy="5"/>
<feGaussianBlur stdDeviation="2"/>
<feComposite in2="hardAlpha" operator="out"/>
<feColorMatrix type="matrix" values="0 0 0 0 0 0 0 0 0 0 0 0 0 0 0 0 0 0 0.25 0"/>
<feBlend mode="normal" in2="BackgroundImageFix" result="effect1_dropShadow_296_19"/>
<feBlend mode="normal" in="SourceGraphic" in2="effect1_dropShadow_296_19" result="shape"/>
</filter>
</defs>
</svg>
