<svg xmlns="http://www.w3.org/2000/svg" viewBox="0 0 419.12 90.72"><defs><style>.cls-1{fill:#5b5b5b;}.cls-2{fill:#ed696b;}</style></defs><g id="Слой_2" data-name="Слой 2"><g id="Слой_1-2" data-name="Слой 1"><path class="cls-1" d="M42.49,90.18C19.06,90.18,0,70,0,45.09S19.06,0,42.49,0A41.45,41.45,0,0,1,75.27,16.39l-7.89,6.14A31.55,31.55,0,0,0,42.49,10C24.58,10,10,25.74,10,45.09S24.58,80.18,42.49,80.18A31.52,31.52,0,0,0,67.07,68l7.81,6.25A41.49,41.49,0,0,1,42.49,90.18Z"/><path class="cls-1" d="M137.75,54.62a26.09,26.09,0,0,0-3.58-51.94H100.74V89h10V54.87h16.12l23.56,34.39.13.2h11.3Zm-27-9.75V12.68h23.43a16.1,16.1,0,1,1,0,32.19Z"/><path class="cls-1" d="M216.79,23.45l0,.21,0-.21Zm-7,0h0Z"/><path class="cls-1" d="M254,73.51l-5.91-12.29-3.36-7h0L242.2,49l-3.37-7-7.61-15.78V15.43a14.2,14.2,0,1,0-28.4,0V26.1L196,40.35h0l-6.69,13.88-3.37,7-6.3,13.1,15.59,16.4,10.93-11.5L217,90.68,228,79.19l10.91,11.47,15.52-16.34Zm-45.46-43.1H209L207.15,42H203Zm9.31,0L219.58,42h-5.36l1.64-11.54h2ZM199.57,49h34.86l2.51,5.23H197.05Zm27.08-7-1.72-11.5h.59L231.06,42ZM209.78,23.41h.05v-8a7.2,7.2,0,0,1,14.4,0v8.05l-7.22,0h-.15l0,.21,0-.21h-1.27l-5.69,0h-.05ZM188,73l5.67-11.78h10.75l-1.61,11.33-7.62,8Zm29,7.52L209.83,73l1.67-11.74h11l1.76,11.72Zm21.83,0-7.61-8-1.7-11.28h10.77L246,73Z"/><polygon class="cls-2" points="236.94 54.22 197.05 54.22 199.57 48.99 234.43 48.99 236.94 54.22"/><path class="cls-1" d="M216.79,23.45l0,.21,0-.21Z"/><path class="cls-1" d="M216.79,23.45l0,.21,0-.21Z"/><path class="cls-1" d="M215.86,30.44h0Zm1-7h-.06l0,.21Zm-7.07,0h.05l5.69,0-5.69,0Z"/><polygon class="cls-1" points="290.05 12.53 290.05 40.49 334.73 40.49 334.73 50.49 290.05 50.49 290.05 88.24 280.05 88.24 280.05 2.53 334.73 2.53 334.73 12.53 290.05 12.53"/><polygon class="cls-1" points="419.12 2.53 419.12 12.53 392.78 12.53 392.78 88.24 382.78 88.24 382.78 12.53 356.44 12.53 356.44 2.53 419.12 2.53"/></g></g></svg>