<svg xmlns="http://www.w3.org/2000/svg" viewBox="0 0 74.77 89.49"><defs><style>.cls-1{fill:#5b5b5b;}.cls-2{fill:#ed696b;}</style></defs><g id="Слой_2" data-name="Слой 2"><g id="Слой_1-2" data-name="Слой 1"><path class="cls-1" d="M37.18,22.22l0,.21,0-.21Zm-7,0h0Z"/><path class="cls-1" d="M74.38,72.28,68.47,60l-3.36-7h0l-2.51-5.23-3.37-7L51.61,25V14.2a14.2,14.2,0,1,0-28.4,0V24.87L16.38,39.12h0L9.67,53,6.3,60,0,73.09l15.59,16.4L26.52,78l10.9,11.46L48.34,78,59.25,89.43,74.77,73.09ZM28.92,29.18h.51L27.54,40.76H23.36Zm9.31,0L40,40.76H34.61l1.64-11.54h2ZM20,47.76H54.82L57.33,53H17.44Zm27.08-7-1.72-11.5h.59l5.54,11.5ZM30.17,22.18h0v-8a7.2,7.2,0,1,1,14.4,0v8.05l-7.22,0h-.15l0,.21,0-.21H35.91l-5.69,0h0ZM8.4,71.77,14.07,60H24.82L23.21,71.32l-7.62,8Zm29,7.52-7.2-7.56L31.89,60h11l1.76,11.72Zm21.83,0-7.61-8L49.94,60H60.71l5.66,11.78Z"/><polygon class="cls-2" points="57.33 52.99 17.44 52.99 19.96 47.76 54.82 47.76 57.33 52.99"/><path class="cls-1" d="M37.18,22.22l0,.21,0-.21Z"/><path class="cls-1" d="M37.18,22.22l0,.21,0-.21Z"/><path class="cls-1" d="M36.25,29.21h0Zm1-7h-.06l0,.21Zm-7.07,0h0l5.69,0-5.69,0Z"/></g></g></svg>